# xmcd
#
# Track frame offsets: 
#        150
#        16219
#        35391
#        48058
#        70466
#        91464
#        106078
#        149315
#        170319
#        190893
#        213245
#        230067
#        249530
#        274888
#        289972
#
# Disc length: 4033 seconds
#
# Revision: 0
# Processed by: cddbd v1.5.2PL0 Copyright (c) Steve Scherf et al.
# Submitted via: ExactAudioCopyFreeDBPlugin 1.0
#
DISCID=d60fbf0f
DTITLE=Various Artist - The Danish Folk, Blues and Ragtime Guitar Festi
DTITLE=val [CD3]
DYEAR=2010
DGENRE=Blues
TTITLE0=H.P. Lange - You Can't Get That Stuff No Mo'
TTITLE1=H.P. Lange - Keep On Trucking
TTITLE2=H.P. Lange - I'm A Gonna Fishing
TTITLE3=H.P. Lange - The Jitterbug Swing
TTITLE4=Duck Baker - Maple Leaf Rag
TTITLE5=Duck Baker - Mama's Getting Younger...
TTITLE6=Duck Baker - Midnight On The Water - Robinson County - Peacock
TTITLE6=Rag
TTITLE7=Paul Banks - Hey Good Looking
TTITLE8=Paul Banks - Jungle Nights In Harlem
TTITLE9=Paul Banks - Dogmatism - Maple Leaf Rag
TTITLE10=David Laibman - Contentment Rag
TTITLE11=David Laibman - Rag Carpet Rag
TTITLE12=David Laibman - Pandoras Rag
TTITLE13=David Laibman - Nola
TTITLE14=David Laibman - Ragtime Oriole
EXTD=
EXTT0=
EXTT1=
EXTT2=
EXTT3=
EXTT4=
EXTT5=
EXTT6=
EXTT7=
EXTT8=
EXTT9=
EXTT10=
EXTT11=
EXTT12=
EXTT13=
EXTT14=
PLAYORDER=
